<svg id="Layer_1" data-name="Layer 1" xmlns="http://www.w3.org/2000/svg" viewBox="0 0 100 100"><defs><style>.cls-1{fill:#ff7816;}.cls-2{fill:#ff9f00;}.cls-3{fill:#ffd400;}.cls-4{fill:#ec5569;}.cls-5{fill:#cc2e43;}.cls-6{fill:#697c86;}.cls-7{fill:#465a61;}</style></defs><path class="cls-1" d="M89.92,1.57H81.74L75.93,7.24h14a2.85,2.85,0,0,1,2.84,2.84v4.33A25.34,25.34,0,0,1,87.21,30.2a25.14,25.14,0,0,1-11.74,8.19l-4,1.34a2.84,2.84,0,1,0,1.8,5.38l4-1.33A30.94,30.94,0,0,0,98.43,14.41V10.08A8.52,8.52,0,0,0,89.92,1.57Z"/><path class="cls-2" d="M28.54,39.73l-4-1.33a25.34,25.34,0,0,1-17.29-24V10.08a2.85,2.85,0,0,1,2.84-2.84H24.75L18.26,1.57H10.08a8.52,8.52,0,0,0-8.51,8.51v4.33A30.94,30.94,0,0,0,22.74,43.78l4,1.33a2.84,2.84,0,1,0,1.8-5.38Z"/><path class="cls-3" d="M58.7,57v4.2A2.81,2.81,0,0,0,61.54,64a8.5,8.5,0,0,1,8.51,8.51v5.68A2.8,2.8,0,0,1,67.22,81H32.78A2.8,2.8,0,0,1,30,78.19V72.51A8.5,8.5,0,0,1,38.46,64a2.81,2.81,0,0,0,2.84-2.84V57A28.29,28.29,0,0,1,21.77,33.24L18.25,1.57h63.5L78.23,33.24A28.29,28.29,0,0,1,58.7,57Z"/><path class="cls-2" d="M67.22,81H50V1.57H81.75L78.23,33.24A28.29,28.29,0,0,1,58.7,57v4.2A2.81,2.81,0,0,0,61.54,64a8.5,8.5,0,0,1,8.51,8.51v5.68A2.8,2.8,0,0,1,67.22,81Z"/><path class="cls-2" d="M64.07,23a2.88,2.88,0,0,0-2.32-2l-6.36-.91-2.84-5.62a3,3,0,0,0-5.1,0l-2.84,5.62L38.25,21a2.83,2.83,0,0,0-1.53,4.88l4.54,4.37-1.08,6.13a2.88,2.88,0,0,0,1.14,2.78,2.79,2.79,0,0,0,3,.23L50,36.42l5.73,2.95a2.78,2.78,0,0,0,3-.23,2.88,2.88,0,0,0,1.14-2.78l-1.08-6.13,4.54-4.37A2.89,2.89,0,0,0,64.07,23Z"/><path class="cls-4" d="M75.73,78.19V95.37H24.27V78.19a2.81,2.81,0,0,1,2.84-2.84H72.89A2.81,2.81,0,0,1,75.73,78.19Z"/><path class="cls-1" d="M55.73,39.37,50,36.42V13a2.82,2.82,0,0,1,2.55,1.42l2.84,5.62,6.36.91a2.83,2.83,0,0,1,1.53,4.88l-4.54,4.37,1.08,6.13a2.88,2.88,0,0,1-1.14,2.78A2.78,2.78,0,0,1,55.73,39.37Z"/><path class="cls-5" d="M75.73,78.19V95.37H50v-20H72.89A2.81,2.81,0,0,1,75.73,78.19Z"/><path class="cls-6" d="M81.4,95.59a2.8,2.8,0,0,1-2.83,2.84H21.43a2.84,2.84,0,0,1,0-5.67H78.57A2.8,2.8,0,0,1,81.4,95.59Z"/><path class="cls-7" d="M81.4,95.59a2.8,2.8,0,0,1-2.83,2.84H50V92.76H78.57A2.8,2.8,0,0,1,81.4,95.59Z"/></svg>